<?xml version="1.0" encoding="iso-8859-1"?>
<!-- Generator: Adobe Illustrator 18.1.1, SVG Export Plug-In . SVG Version: 6.00 Build 0)  -->
<svg version="1.1" id="Capa_1" xmlns="http://www.w3.org/2000/svg" xmlns:xlink="http://www.w3.org/1999/xlink" x="0px" y="0px"
	 viewBox="0 0 1024.497 1024.497" style="enable-background:new 0 0 1024.497 1024.497;" xml:space="preserve">
<g>
	<path d="M994.365,748.249h-63.146v-657h63.146c16.635,0,30.132-13.357,30.132-30s-13.497-30-30.132-30H30.132
		C13.497,31.249,0,44.606,0,61.249s13.497,30,30.132,30h63.086v657H30.132c-16.635,0-30.132,13.357-30.132,30
		c0,16.643,13.497,30,30.132,30h964.233c16.635,0,30.132-13.357,30.132-30C1024.497,761.605,1011.001,748.249,994.365,748.249z
		 M153.219,91.249h718v657h-718V91.249z"/>
	<path d="M594.516,933.249h-56.61c1.064-3,1.312-6.288,1.312-9.732v-34.142c0-16.643-13.364-30.132-30-30.132
		c-16.635,0-30,13.489-30,30.132v34.142c0,3.444,0.659,6.732,1.723,9.732h-62.26c-16.635,0-30.132,13.357-30.132,30
		s13.497,30,30.132,30h175.834c16.636,0,30.132-13.357,30.132-30S611.152,933.249,594.516,933.249z"/>
	<path d="M758.392,346.334c-9.008-13.975-27.684-17.977-41.667-8.969L519.264,464.902l-36.943-98.495
		c-3.217-8.561-10.138-15.199-18.817-18.048c-8.663-2.872-18.174-1.608-25.848,3.374L232.615,485.257
		c-13.936,9.079-17.891,27.747-8.804,41.691c5.775,8.875,15.427,13.693,25.283,13.693c5.634,0,11.331-1.577,16.416-4.881
		l173.575-113.035l36.881,98.369c3.201,8.538,10.107,15.16,18.754,18.024c8.647,2.864,18.158,1.664,25.816-3.296l228.896-147.829
		C763.398,378.962,767.416,360.31,758.392,346.334z"/>
</g>
<g>
</g>
<g>
</g>
<g>
</g>
<g>
</g>
<g>
</g>
<g>
</g>
<g>
</g>
<g>
</g>
<g>
</g>
<g>
</g>
<g>
</g>
<g>
</g>
<g>
</g>
<g>
</g>
<g>
</g>
</svg>
